:SAMPLES-PER-SECOND 30
:FULLY-SPECIFIED
:DEGREES
296
root  -47.3164 35.5853 20.8255 172.688 -4.97397 -175.659
RightUpLeg  -18.7727 4.13619 -19.2775
RightLeg  40.4107 -1.74918 -1.86189
RightFoot  -11.3187 -0.0807149 14.1414
RightToes  0.000482159 0.542163 -0.142577
Spine  48.956 3.59286 -14.7088
Spine1  -11.7844 -3.00285 -0.652599
HEad  -59.0281 -35.8305 25.8461
LeftShoulder1  7.16071 -13.4572 -36.1301
LeftArm  -18.4026 8.81223 -23.9574
LeftForeArm  69.4064 -72.5812 -27.4233
LeftHand  -0.25398 0.0180481 5.50724
RightShoulder  7.68721 12.595 41.5113
RightArm  18.8869 1.39298 36.1276
RightForeArm  15.4069 60.1198 18.5296
RightHand  -4.8689 13.0688 -30.3699
LeftUpLeg  -29.3113 9.56431 20.0556
LeftLeg  50.4875 -0.278132 0.10461
LeftFoot  -10.1031 0.190069 -12.0097
LeftToes  1.06246e-005 4.65855e-005 -8.18502e-006
297
root  -47.8528 35.7371 20.6406 171.957 -2.27072 -175.955
RightUpLeg  -17.7318 0.57523 -19.1767
RightLeg  41.0366 -0.594776 -0.834207
RightFoot  -10.2077 -0.229211 16.1073
RightToes  0.000482159 0.542163 -0.142577
Spine  47.3917 3.17153 -14.7171
Spine1  -12.4628 -3.13696 -0.903341
HEad  -58.0837 -35.0572 25.5473
LeftShoulder1  7.18584 -13.3864 -36.4474
LeftArm  -16.7888 10.8434 -26.4356
LeftForeArm  68.4431 -71.3669 -25.1876
LeftHand  -0.25398 0.0180481 5.50724
RightShoulder  7.17325 11.7905 40.715
RightArm  17.5767 -0.770119 35.7702
RightForeArm  14.5307 59.5361 18.1416
RightHand  -4.4905 12.1708 -29.4984
LeftUpLeg  -26.8121 11.1289 19.7307
LeftLeg  50.6788 0.188724 0.718298
LeftFoot  -11.2733 0.0734419 -11.6957
LeftToes  1.06246e-005 4.65855e-005 -8.18502e-006
298
root  -48.3087 35.8333 20.4871 170.993 0.614746 -176.222
RightUpLeg  -16.7756 -3.16526 -18.6361
RightLeg  43.0123 -1.37287 -1.67807
RightFoot  -9.46623 -0.334255 16.4243
RightToes  0.000482159 0.542163 -0.142577
Spine  46.1346 2.98125 -14.7805
Spine1  -12.808 -3.20584 -0.297501
HEad  -55.9932 -33.1459 24.2237
LeftShoulder1  7.26816 -13.3315 -37.0559
LeftArm  -15.5593 12.1394 -28.5474
LeftForeArm  68.544 -71.0264 -24.5803
LeftHand  -0.25398 0.0180481 5.50724
RightShoulder  6.70311 11.1457 39.6392
RightArm  16.2927 -2.49371 35.5087
RightForeArm  13.6148 59.5812 18.2769
RightHand  -4.20871 11.45 -28.868
LeftUpLeg  -24.2837 12.4997 19.781
LeftLeg  51.1363 0.785148 1.52128
LeftFoot  -12.3502 -0.0311377 -11.9083
LeftToes  1.06246e-005 4.65855e-005 -8.18502e-006
299
root  -48.6744 35.9153 20.3838 170.079 3.3362 -176.464
RightUpLeg  -15.8057 -6.82965 -17.857
RightLeg  45.1363 -3.84165 -4.43885
RightFoot  -9.67895 -0.285604 14.9296
RightToes  0.000482159 0.542163 -0.142577
Spine  45.2946 2.86796 -14.915
Spine1  -13.0519 -3.32798 0.895659
HEad  -53.9845 -30.8451 22.9002
LeftShoulder1  7.39139 -13.4019 -37.5866
LeftArm  -14.6022 12.6679 -30.3293
LeftForeArm  68.7887 -71.0402 -24.5649
LeftHand  -0.25398 0.0180481 5.50724
RightShoulder  6.4712 10.8195 39.0889
RightArm  14.7211 -4.1253 34.6309
RightForeArm  13.6225 60.2743 18.86
RightHand  -4.01218 10.8712 -28.5139
LeftUpLeg  -21.9821 13.9662 19.928
LeftLeg  51.4505 1.4437 2.42017
LeftFoot  -13.2534 -0.114814 -11.6103
LeftToes  1.06246e-005 4.65855e-005 -8.18502e-006
300
root  -48.9166 35.9548 20.3303 169.565 5.46501 -176.574
RightUpLeg  -15.2136 -10.4591 -17.0197
RightLeg  47.1964 -6.41121 -7.68209
RightFoot  -10.6168 -0.153445 12.7134
RightToes  0.000482159 0.542163 -0.142577
Spine  44.6499 2.62852 -14.9349
Spine1  -13.4017 -3.56419 2.52924
HEad  -51.7778 -28.4693 21.1759
LeftShoulder1  7.53206 -13.6105 -37.8651
LeftArm  -13.5212 12.0908 -31.9775
LeftForeArm  67.9618 -70.3898 -23.6093
LeftHand  -0.25398 0.0180481 5.50724
RightShoulder  6.32859 10.5659 38.8974
RightArm  12.461 -5.99871 33.7547
RightForeArm  14.8314 61.1111 19.4645
RightHand  -3.88461 10.5861 -28.1278
LeftUpLeg  -20.4113 15.3761 20.1991
LeftLeg  51.5683 1.80323 2.91325
LeftFoot  -13.8262 -0.161353 -11.2083
LeftToes  1.06246e-005 4.65855e-005 -8.18502e-006
301
root  -49.004 35.9136 20.295 169.597 6.88741 -176.574
RightUpLeg  -15.1711 -13.4997 -16.4104
RightLeg  49.2291 -8.02158 -10.1754
RightFoot  -11.5809 -0.0538117 11.484
RightToes  0.000482159 0.542163 -0.142577
Spine  43.6949 2.29643 -14.8889
Spine1  -13.6251 -3.83468 4.57284
HEad  -48.9913 -26.5895 18.7547
LeftShoulder1  7.73447 -13.8519 -38.396
LeftArm  -11.7576 9.82494 -33.2286
LeftForeArm  65.5172 -68.2013 -20.8438
LeftHand  -0.25398 0.0180481 5.50724
RightShoulder  6.13291 10.2243 38.6046
RightArm  9.39215 -8.30583 33.6114
RightForeArm  15.4511 61.226 19.4968
RightHand  -4.15885 11.4352 -28.5526
LeftUpLeg  -19.8531 16.576 20.6487
LeftLeg  51.8914 1.70755 2.81211
LeftFoot  -14.2349 -0.21041 -11.6534
LeftToes  1.06246e-005 4.65855e-005 -8.18502e-006
302
root  -48.9338 35.8293 20.2466 169.949 7.91238 -176.672
RightUpLeg  -15.3571 -15.4698 -16.2756
RightLeg  51.1023 -9.06454 -12.1836
RightFoot  -12.5039 0.0353649 11.7325
RightToes  0.000482159 0.542163 -0.142577
Spine  42.2821 1.99124 -15.0237
Spine1  -13.6675 -4.09503 6.70426
HEad  -45.4089 -25.2666 15.8867
LeftShoulder1  8.07213 -14.077 -39.682
LeftArm  -9.17248 6.25297 -33.7301
LeftForeArm  62.8461 -64.8468 -17.4646
LeftHand  -0.25398 0.0180481 5.50724
RightShoulder  5.95019 9.89272 38.3583
RightArm  6.5174 -10.8998 33.745
RightForeArm  13.1225 59.7905 18.5104
RightHand  -4.89985 13.2456 -30.2736
LeftUpLeg  -19.8242 17.8643 21.1451
LeftLeg  52.3494 1.46254 2.51622
LeftFoot  -14.6315 -0.267765 -12.3346
LeftToes  1.06246e-005 4.65855e-005 -8.18502e-006
303
root  -48.7348 35.7541 20.1836 170.14 8.92567 -177.006
RightUpLeg  -15.3649 -16.5984 -16.6302
RightLeg  52.9905 -10.2597 -14.6111
RightFoot  -13.8049 0.162881 11.969
RightToes  0.000482159 0.542163 -0.142577
Spine  40.8637 1.73622 -15.4704
Spine1  -13.7812 -4.41687 8.8442
HEad  -40.9547 -23.9113 12.971
LeftShoulder1  8.51453 -14.2937 -41.4981
LeftArm  -6.22262 2.75522 -33.9432
LeftForeArm  61.5089 -61.978 -15.1704
LeftHand  -0.25398 0.0180481 5.50724
RightShoulder  5.81307 9.61401 38.2602
RightArm  5.49137 -13.2731 33.4225
RightForeArm  7.72613 56.2091 16.3864
RightHand  -5.46511 14.3603 -31.7817
LeftUpLeg  -19.462 19.3457 21.6379
LeftLeg  52.4974 1.29222 2.29104
LeftFoot  -14.8741 -0.287768 -12.1716
LeftToes  1.06246e-005 4.65855e-005 -8.18502e-006
